<?xml version="1.0" encoding="utf-8"?>
<!-- Generator: Adobe Illustrator 16.0.0, SVG Export Plug-In . SVG Version: 6.00 Build 0)  -->
<!DOCTYPE svg PUBLIC "-//W3C//DTD SVG 1.1//EN" "http://www.w3.org/Graphics/SVG/1.1/DTD/svg11.dtd">
<svg version="1.1" id="Layer_1" xmlns="http://www.w3.org/2000/svg" xmlns:xlink="http://www.w3.org/1999/xlink" x="0px" y="0px"
	 width="740.413px" height="188.531px" viewBox="0 0 740.413 188.531" enable-background="new 0 0 740.413 188.531"
	 xml:space="preserve">
<path fill="#58595B" d="M93.623,20.556c9.651-7.676,19.858-14.233,30.686-19.817c0.268-0.139,0.613-0.129,1.028-0.209
	c0.05,0.609,0.125,1.093,0.125,1.576c0.01,34.326,0.349,68.657-0.118,102.977c-0.241,17.679-5.744,33.899-17.856,47.335
	c-7.07,7.842-15.824,13.148-25.743,16.618c-0.921,0.321-1.82,0.706-2.914,1.134c3.107,5.283,6.123,10.409,9.31,15.827
	c-5.818,0-11.198,0-16.849,0c-2.87-6.894-5.767-13.851-8.764-21.049c1.754-0.728,3.341-1.386,4.929-2.042
	c9.674-4,18.796-8.945,26.665-15.939c12.244-10.886,17.371-24.851,17.438-40.937c0.008-1.995-0.183-3.993-0.331-5.986
	c-0.043-0.569-0.26-1.126-0.441-1.869c-8.589-1.008-16.31-4.275-23.313-9.334c-6.902-4.986-12.328-11.346-17.167-18.616
	c-2.605,3.678-5.042,7.119-7.705,10.877c-2.55-3.63-4.967-7.071-7.591-10.807c-4.147,7.375-8.909,13.907-16.679,17.175
	c4.767,3.933,9.549,7.798,14.246,11.767c15.198,12.839,15.388,36.935,1.552,50.548c-4.563,4.489-9.428,8.675-14.163,12.989
	c-0.606,0.552-1.266,1.045-1.995,1.643c3.318,7.132,6.604,14.189,10.025,21.545c-5.566,0-10.764,0-16.236,0
	c-1.798-4.23-3.645-8.575-5.579-13.127C17.51,178.034,8.943,183.17,0,188.531C0,125.491,0,63.067,0,0
	c5.766,3.399,11.286,6.431,16.569,9.832c5.242,3.375,10.246,7.121,15.527,10.825c9.662-4.244,19.978-6.645,30.767-6.74
	C73.578,13.822,83.82,16.124,93.623,20.556z M14.462,162.691c8-3.687,24.895-16.887,30.777-22.975
	c7.722-7.992,6.452-19.021,1.485-26.131c-5.905-8.452-14.146-13.193-24.127-15.066c-2.627-0.492-5.335-0.551-8.135-0.819
	C14.462,119.667,14.462,141.062,14.462,162.691z M110.819,24.062c-2.168,1.354-3.955,2.398-5.668,3.551
	c-8.731,5.877-16.51,12.675-21.426,22.238c-2.515,4.892-3.319,9.773,0.029,14.626c5.228,7.576,12.047,13.301,20.412,17.11
	c2.06,0.938,4.333,1.615,6.653,0.593C110.819,62.847,110.819,43.702,110.819,24.062z M14.47,82.245
	c2.621,0.894,4.998,0.137,7.244-0.917c7.373-3.457,13.393-8.622,18.485-14.93c4.272-5.291,4.423-10.791,1.245-16.696
	c-6.069-11.28-15.592-18.865-26.412-25.111c-0.102-0.059-0.308,0.064-0.562,0.125C14.47,43.834,14.47,62.972,14.47,82.245z
	 M64.217,54.84c-0.188-0.176-0.377-0.353-0.565-0.529c6.022-8.001,12.043-16.001,18.004-23.92
	c-8.591-4.157-29.883-3.979-37.73,0.336c5.894,7.895,11.825,15.839,18.002,24.113C62.252,54.84,63.234,54.84,64.217,54.84z"/>
<path fill="#58595B" d="M105.125,56.683c-0.035,4.497-3.658,8.072-8.126,8.02c-4.418-0.052-8.114-3.804-8.051-8.176
	c0.062-4.379,3.871-8.121,8.206-8.062C101.583,48.525,105.16,52.212,105.125,56.683z"/>
<path fill="#58595B" d="M36.267,56.669c-0.044,4.444-3.732,8.076-8.164,8.04c-4.421-0.036-8.116-3.771-8.068-8.157
	c0.048-4.383,3.845-8.131,8.187-8.082C32.621,48.521,36.31,52.28,36.267,56.669z"/>
<g>
	<path fill="#58595B" d="M171.59,187.753c-18.492,0-32.227-14.273-32.227-32.316v-0.18c0-17.863,13.465-32.495,32.765-32.495
		c11.849,0,18.941,3.949,24.776,9.694l-8.797,10.144c-4.848-4.398-9.785-7.091-16.068-7.091c-10.593,0-18.223,8.797-18.223,19.569
		v0.179c0,10.772,7.451,19.749,18.223,19.749c7.181,0,11.58-2.872,16.517-7.36l8.797,8.887
		C190.89,183.444,183.708,187.753,171.59,187.753z"/>
	<path fill="#58595B" d="M238.012,187.753c-19.39,0-33.304-14.452-33.304-32.316v-0.18c0-17.863,14.093-32.495,33.483-32.495
		c19.39,0,33.304,14.452,33.304,32.316v0.179C271.495,173.121,257.401,187.753,238.012,187.753z M257.042,155.257
		c0-10.771-7.9-19.748-19.031-19.748c-11.131,0-18.851,8.797-18.851,19.569v0.179c0,10.772,7.899,19.749,19.03,19.749
		c11.131,0,18.852-8.797,18.852-19.569V155.257z"/>
	<path fill="#58595B" d="M328.762,186.676l-30.431-39.946v39.946h-13.645v-62.837h12.747l29.443,38.689v-38.689h13.645v62.837
		H328.762z"/>
	<path fill="#58595B" d="M388.723,187.125h-12.208l-25.404-63.286h15.261l16.427,44.255l16.428-44.255h14.901L388.723,187.125z"/>
	<path fill="#58595B" d="M424.716,186.676v-62.837h47.397v12.298H438.45v12.747h29.623v12.298H438.45v13.196h34.112v12.298H424.716z
		"/>
	<path fill="#58595B" d="M523.905,186.676l-13.465-20.107h-10.862v20.107h-13.824v-62.837h28.726
		c14.812,0,23.699,7.81,23.699,20.736v0.179c0,10.145-5.476,16.518-13.465,19.48l15.35,22.441H523.905z M524.175,145.293
		c0-5.925-4.129-8.977-10.862-8.977h-13.734v18.043h14.003c6.733,0,10.593-3.591,10.593-8.887V145.293z"/>
	<path fill="#58595B" d="M580.006,136.586v50.09h-13.824v-50.09h-19.12v-12.747h52.065v12.747H580.006z"/>
	<path fill="#58595B" d="M648.765,186.676L635.3,166.568h-10.862v20.107h-13.824v-62.837h28.726c14.812,0,23.699,7.81,23.699,20.736
		v0.179c0,10.145-5.476,16.518-13.465,19.48l15.35,22.441H648.765z M649.034,145.293c0-5.925-4.129-8.977-10.862-8.977h-13.734
		v18.043h14.004c6.732,0,10.593-3.591,10.593-8.887V145.293z"/>
	<path fill="#58595B" d="M706.93,187.753c-19.39,0-33.304-14.452-33.304-32.316v-0.18c0-17.863,14.094-32.495,33.483-32.495
		s33.304,14.452,33.304,32.316v0.179C740.413,173.121,726.319,187.753,706.93,187.753z M725.96,155.257
		c0-10.771-7.899-19.748-19.03-19.748s-18.852,8.797-18.852,19.569v0.179c0,10.772,7.899,19.749,19.031,19.749
		c11.131,0,18.851-8.797,18.851-19.569V155.257z"/>
</g>
</svg>
