<?xml version="1.0" encoding="utf-8"?>
<!-- Generator: Adobe Illustrator 16.0.0, SVG Export Plug-In . SVG Version: 6.00 Build 0)  -->
<!DOCTYPE svg PUBLIC "-//W3C//DTD SVG 1.1//EN" "http://www.w3.org/Graphics/SVG/1.1/DTD/svg11.dtd">
<svg version="1.1" id="Layer_1" xmlns="http://www.w3.org/2000/svg" xmlns:xlink="http://www.w3.org/1999/xlink" x="0px" y="0px"
	 width="1186.209px" height="188.531px" viewBox="0 0 1186.209 188.531" enable-background="new 0 0 1186.209 188.531"
	 xml:space="preserve">
<path fill-rule="evenodd" clip-rule="evenodd" d="M93.623,20.556c9.651-7.676,19.858-14.233,30.686-19.817
	c0.268-0.139,0.613-0.129,1.028-0.209c0.05,0.609,0.125,1.093,0.125,1.576c0.01,34.326,0.349,68.657-0.118,102.977
	c-0.241,17.679-5.744,33.899-17.856,47.335c-7.07,7.842-15.824,13.148-25.743,16.618c-0.921,0.321-1.82,0.706-2.914,1.134
	c3.107,5.283,6.123,10.409,9.31,15.827c-5.818,0-11.198,0-16.849,0c-2.87-6.894-5.767-13.851-8.764-21.049
	c1.754-0.727,3.341-1.386,4.929-2.042c9.674-4,18.796-8.945,26.665-15.939c12.244-10.886,17.371-24.851,17.438-40.937
	c0.008-1.995-0.183-3.993-0.331-5.986c-0.043-0.57-0.26-1.126-0.441-1.869c-8.589-1.008-16.31-4.275-23.313-9.334
	c-6.902-4.986-12.328-11.346-17.167-18.616c-2.605,3.678-5.042,7.119-7.705,10.877c-2.55-3.63-4.967-7.071-7.591-10.807
	c-4.147,7.375-8.909,13.907-16.679,17.175c4.767,3.933,9.549,7.798,14.246,11.766c15.198,12.839,15.388,36.935,1.552,50.548
	c-4.563,4.49-9.428,8.675-14.163,12.989c-0.606,0.552-1.266,1.045-1.995,1.643c3.318,7.132,6.604,14.19,10.025,21.545
	c-5.566,0-10.764,0-16.236,0c-1.798-4.231-3.645-8.575-5.579-13.127C17.51,178.034,8.943,183.17,0,188.531C0,125.491,0,63.067,0,0
	c5.766,3.399,11.286,6.431,16.569,9.832c5.242,3.375,10.246,7.121,15.527,10.825c9.662-4.244,19.978-6.645,30.767-6.74
	C73.578,13.822,83.82,16.124,93.623,20.556z M14.462,162.692c8-3.687,24.895-16.888,30.777-22.975
	c7.722-7.992,6.452-19.022,1.485-26.131c-5.905-8.452-14.146-13.194-24.127-15.066c-2.627-0.493-5.335-0.551-8.135-0.82
	C14.462,119.667,14.462,141.063,14.462,162.692z M110.819,24.062c-2.168,1.354-3.955,2.398-5.668,3.551
	c-8.731,5.877-16.51,12.675-21.426,22.238c-2.515,4.892-3.319,9.773,0.029,14.626c5.228,7.576,12.047,13.301,20.412,17.11
	c2.06,0.938,4.333,1.615,6.653,0.593C110.819,62.847,110.819,43.702,110.819,24.062z M14.47,82.245
	c2.621,0.894,4.998,0.137,7.244-0.917c7.373-3.457,13.393-8.622,18.485-14.93c4.272-5.291,4.423-10.791,1.245-16.696
	c-6.069-11.28-15.592-18.865-26.412-25.111c-0.102-0.059-0.308,0.064-0.562,0.125C14.47,43.834,14.47,62.972,14.47,82.245z
	 M64.217,54.84c-0.188-0.176-0.377-0.353-0.565-0.529c6.022-8.001,12.043-16.001,18.004-23.92
	c-8.591-4.157-29.883-3.979-37.73,0.336c5.894,7.895,11.825,15.839,18.002,24.113C62.252,54.84,63.234,54.84,64.217,54.84z"/>
<path fill-rule="evenodd" clip-rule="evenodd" d="M450.396,77.282c0,23.305,0,46.609,0,70.058c-6.296,0-12.418,0-18.722,0
	c0-33.121,0-66.146,0-99.33c7.189,0,14.237,0,21.551,0c15.181,23.34,30.455,46.823,45.729,70.305c0.157-0.03,0.313-0.061,0.47-0.091
	c0-23.324,0-46.647,0-70.171c6.434,0,12.547,0,18.869,0c0,33.333,0,66.689,0,100.236c-6.868,0-13.745,0-21.062,0
	c-15.302-23.544-30.789-47.372-46.276-71.201C450.768,77.153,450.582,77.218,450.396,77.282z"/>
<path fill-rule="evenodd" clip-rule="evenodd" d="M398.162,95.076c-0.156,18.073-5.159,31.979-17.381,42.778
	c-8.206,7.251-17.99,10.995-28.76,11.911c-13.137,1.117-25.558-1.384-36.487-9.142c-9.258-6.571-15.082-15.599-17.778-26.602
	c-3.28-13.392-2.992-26.651,2.769-39.325c7.818-17.199,21.562-26.507,40.163-28.87c9.782-1.243,19.314-0.038,28.363,3.771
	c15.653,6.589,24.68,18.667,27.885,35.17C397.724,88.828,397.925,93.003,398.162,95.076z M315.917,97.245
	c-0.056,6.237,0.907,12.276,3.482,17.981c5.348,11.853,14.779,17.824,27.562,17.911c12.582,0.086,22.069-5.611,27.468-17.22
	c4.417-9.497,4.819-19.496,2.349-29.512c-2.797-11.339-9.324-19.75-21.017-22.835c-11.528-3.042-22.244-1.267-30.793,7.716
	C318.104,78.497,316.003,87.569,315.917,97.245z"/>
<path fill-rule="evenodd" clip-rule="evenodd" d="M1083.722,98.834c0.275-18.718,6.42-33.77,21.365-44.303
	c10.69-7.535,22.795-10.041,35.781-8.817c9.477,0.893,18.232,3.677,25.941,9.317c10.656,7.797,16.477,18.603,18.48,31.423
	c1.926,12.316,1.027,24.442-4.635,35.804c-7.966,15.979-21.056,24.871-38.643,27.226c-11.426,1.53-22.429-0.083-32.702-5.387
	c-14.876-7.681-22.497-20.446-24.894-36.646C1083.956,104.334,1083.901,101.156,1083.722,98.834z M1103.903,100.381
	c-0.035,3.293,0.957,9.338,3.563,15.021c5.368,11.706,14.751,17.64,27.435,17.737c12.58,0.097,22.041-5.592,27.515-17.163
	c3.391-7.167,4.15-14.787,3.519-22.636c-1.481-18.404-13.762-32.483-34.21-30.904c-8.283,0.64-15.198,4.074-20.354,10.681
	C1105.797,80.258,1103.933,88.573,1103.903,100.381z"/>
<path fill-rule="evenodd" clip-rule="evenodd" d="M1002.036,147.374c-6.873,0-13.27,0-19.854,0c0-33.133,0-66.155,0-99.352
	c0.818-0.062,1.539-0.164,2.26-0.164c11.747-0.009,23.496-0.102,35.242,0.035c6.606,0.077,13.086,1.214,19.145,3.995
	c11.402,5.234,16.913,14.197,16.812,26.737c-0.106,13.242-6.634,22.072-18.464,27.361c-0.832,0.372-1.676,0.715-2.587,1.103
	c8.571,13.341,17.097,26.613,25.837,40.22c-7.822,0-15.183,0-22.848,0c-7.178-11.818-14.466-23.816-21.849-35.973
	c-4.481,0.275-8.943,0.551-13.694,0.843C1002.036,123.964,1002.036,135.572,1002.036,147.374z M1002.007,96.276
	c2.428,0,4.678,0.181,6.89-0.036c5.271-0.517,10.681-0.634,15.747-1.99c7.197-1.926,10.902-7.917,10.605-15.313
	c-0.275-6.837-4.078-11.278-11.5-13.164c-7.107-1.806-14.354-1.064-21.742-1.184C1002.007,75.22,1002.007,85.594,1002.007,96.276z"
	/>
<path fill-rule="evenodd" clip-rule="evenodd" d="M822.089,107.091c8.618,13.413,17.105,26.623,25.812,40.175
	c-7.828,0-15.248,0-22.852,0c-7.178-11.82-14.428-23.76-21.814-35.927c-4.493,0.278-9.02,0.56-13.733,0.852
	c0,11.816,0,23.37,0,35.108c-6.655,0-13.109,0-19.787,0c0-32.998,0-66.015,0-99.309c0.884-0.047,1.761-0.133,2.638-0.133
	c11.414-0.009,22.829-0.073,34.242,0.021c6.783,0.056,13.424,1.154,19.649,3.981c11.43,5.189,16.976,14.143,16.9,26.678
	c-0.081,13.34-6.653,22.237-18.618,27.507C823.769,106.377,823.005,106.697,822.089,107.091z M789.479,96.572
	c6.128-0.341,12.13-0.322,18.015-1.142c3.247-0.452,6.556-1.89,9.388-3.619c7.571-4.622,8.991-20.299-2.055-24.697
	c-3.255-1.296-6.876-1.99-10.382-2.257c-4.935-0.375-9.918-0.095-14.966-0.095C789.479,75.32,789.479,85.693,789.479,96.572z"/>
<path fill-rule="evenodd" clip-rule="evenodd" d="M687.211,105.82c0,8.45,0,16.413,0,24.703c16.071,0,32.021,0,48.171,0
	c0,5.762,0,11.197,0,16.799c-22.496,0-44.956,0-67.653,0c0-33.011,0-66.027,0-99.257c22.511,0,45.022,0,67.694,0
	c0,5.507,0,10.961,0,16.701c-16.041,0-32,0-48.148,0c0,8.14,0,15.997,0,24.236c13.15,0,26.257,0,39.516,0c0,5.757,0,11.137,0,16.818
	C713.682,105.82,700.57,105.82,687.211,105.82z"/>
<path fill-rule="evenodd" clip-rule="evenodd" d="M592.802,126.652c9.053-26.576,17.915-52.591,26.793-78.655
	c6.848,0,13.553,0,20.705,0c-11.907,33.246-23.717,66.222-35.574,99.325c-8.008,0-15.973,0-24.159,0
	c-11.706-32.969-23.429-65.987-35.25-99.279c7.019,0,13.712,0,20.704,0C574.854,73.969,583.729,100.02,592.802,126.652z"/>
<path fill-rule="evenodd" clip-rule="evenodd" d="M270.176,53.43c-2.131,5.913-4.147,11.508-6.045,16.774
	c-5.078-2.05-9.765-4.465-14.738-5.84c-9.834-2.72-19.685-2.575-28.72,2.834c-9.5,5.688-13.579,14.822-14.55,25.418
	c-0.842,9.188,0.211,18.175,5.273,26.199c6.627,10.505,16.657,14.281,28.592,13.776c8.668-0.366,16.563-3.262,23.799-8.007
	c0.404-0.265,0.844-0.474,1.605-0.896c1.285,6.216,2.52,12.187,3.777,18.269c-5.091,3.075-10.436,4.971-16.061,6.201
	c-11.236,2.457-22.422,2.678-33.527-0.678c-16.775-5.067-27.429-16.155-31.764-33.069c-3.368-13.138-3.043-26.268,2.047-38.963
	c6.638-16.552,19.332-25.858,36.574-28.996c14.132-2.571,27.801-0.516,40.862,5.477C268.196,52.339,269.049,52.838,270.176,53.43z"
	/>
<path fill-rule="evenodd" clip-rule="evenodd" d="M899.048,65.456c-5.738,0-11.129,0-16.521,0c-5.402,0-10.806,0-16.412,0
	c0-5.89,0-11.575,0-17.434c28.523,0,56.979,0,85.658,0c0,5.658,0,11.346,0,17.368c-10.829,0-21.684,0-32.785,0
	c0,27.45,0,54.57,0,81.892c-6.693,0-13.141,0-19.939,0C899.048,120.107,899.048,92.922,899.048,65.456z"/>
<path fill-rule="evenodd" clip-rule="evenodd" d="M105.125,56.683c-0.035,4.497-3.658,8.072-8.126,8.02
	c-4.418-0.052-8.114-3.804-8.051-8.176c0.062-4.379,3.871-8.121,8.206-8.062C101.583,48.525,105.16,52.212,105.125,56.683z"/>
<path fill-rule="evenodd" clip-rule="evenodd" d="M36.267,56.669c-0.044,4.444-3.732,8.076-8.164,8.04
	c-4.421-0.036-8.116-3.771-8.068-8.157c0.048-4.383,3.845-8.131,8.187-8.082C32.621,48.521,36.31,52.28,36.267,56.669z"/>
</svg>
